# xmcd
#
# Track frame offsets: 
#        150
#        19382
#        39306
#        58654
#        79360
#        99853
#        119852
#        143936
#        163881
#        185312
#        203118
#        229667
#
# Disc length: 3379 seconds
#
# Revision: 1
# Processed by: cddbd v1.5.2PL0 Copyright (c) Steve Scherf et al.
# Submitted via: ExactAudioCopy v0.99pb4
#
DISCID=a70d310c
DTITLE=Michael Bolton - That´S Me Straight From The Heart
DYEAR=2005
DGENRE=Ballad
TTITLE0=How Am I Supposed Without You
TTITLE1=Missing You Now
TTITLE2=The Best Of Love
TTITLE3=Love With My Eyes Closed
TTITLE4=New Love
TTITLE5=Soul Provider
TTITLE6=Save Place From The Storm
TTITLE7=Whenever I Remember Loving You
TTITLE8=Can't Get Close Enough To You
TTITLE9=That's What Love Is All About
TTITLE10=Once In A Lifetime
TTITLE11=This River
EXTD=
EXTT0=
EXTT1=
EXTT2=
EXTT3=
EXTT4=
EXTT5=
EXTT6=
EXTT7=
EXTT8=
EXTT9=
EXTT10=
EXTT11=
PLAYORDER=
